<?xml version="1.0" encoding="utf-8"?>
<!-- Generator: Adobe Illustrator 18.1.1, SVG Export Plug-In . SVG Version: 6.00 Build 0)  -->
<svg version="1.1" id="Layer_1" xmlns="http://www.w3.org/2000/svg" xmlns:xlink="http://www.w3.org/1999/xlink" x="0px" y="0px"
	 viewBox="0 0 38.5 75" enable-background="new 0 0 38.5 75" xml:space="preserve">
<path fill="none" stroke="#000000" stroke-miterlimit="10" d="M2.9,53.2c-0.7-0.4-1.5-0.8-2.2-1.3c-0.3-0.2-0.5-0.6-0.6-1
	c-0.3-1.2,0.2-1.8,1.4-1.5c0.9,0.2,1.7,0.5,2.6,0.8C4.1,49.6,4,49,4,48.4c-0.2-4.5-0.4-9-0.6-13.4c0-0.4-0.1-0.8-0.3-1.1
	c-0.4-1-0.4-2,0-3.1c0.2-0.7,0.4-1.4,0.5-2.1c0.1-1.6,0.2-3.2,0.3-4.7c0-0.2,0-0.4,0-0.6C3.5,22,3.1,20.7,3,19.3
	c0-3.2,0-6.4,0.2-9.6c0.2-3.5,2.3-5.8,5.2-7.5c2.8-1.6,5.8-2.1,9-2.2C20.8-0.1,24.1,0,27.3,1c3,1,5.7,2.6,7.2,5.6
	c0.5,1,0.9,2.2,0.9,3.3c0.2,3.5,0.2,7,0.2,10.5c0,1-0.4,2-0.6,3c0,0.2-0.1,0.4-0.1,0.7c0.1,1.8,0.2,3.6,0.3,5.4
	c0,0.4,0.1,0.7,0.3,1.1c0.5,1.2,0.6,2.3,0,3.5c-0.1,0.2-0.2,0.4-0.2,0.6c0.1,5.1-0.2,10.3-0.8,15.4c0,0.1,0,0.2,0,0.3
	c0.9-0.3,1.7-0.6,2.5-0.8c0.4-0.1,1.2,0,1.3,0.2c0.2,0.5,0.3,1.3,0,1.6c-0.5,0.6-1.2,1.2-1.9,1.5c-0.7,0.3-0.8,0.6-0.7,1.2
	c0.1,3,0.3,6,0.2,8.9c-0.2,5.6-3.8,9.9-9.5,11.3c-1.5,0.4-3,0.6-4.5,0.6c-3.1,0-6.2,0.3-9.3-0.5c-2.3-0.6-4.5-1.5-6.2-3.2
	C4,68.9,2.8,66,2.7,62.7C2.7,59.6,2.8,56.4,2.9,53.2z"/>
<path d="M7.5,46.3c7.9,2.2,15.8,2.2,23.7,0c0.2,1.6,0.5,3.1,0.7,4.6c0.2,1.7,0.4,3.4,0.8,5c0.2,1.1-0.2,1.8-0.8,2.6
	c-1.6,1.8-3.7,3-6,3.7c-4.9,1.4-9.8,1.3-14.5-0.6c-2.1-0.8-3.8-2.1-5-3.9c-0.2-0.3-0.4-0.7-0.3-1c0.5-3.3,1-6.7,1.4-10
	C7.4,46.5,7.4,46.4,7.5,46.3z"/>
<path d="M30.2,21.6c-7.3-1.6-14.4-1.6-21.6,0c0-1.3,0-2.5,0-3.7c0-2.3,0.1-4.6,0.1-6.8c0-0.5,0.1-0.9,0.7-1.2
	C16,6.3,22.7,6.2,29.4,9.9c0.2,0.1,0.5,0.4,0.5,0.7C30.1,14.2,30.1,17.8,30.2,21.6z"/>
<path d="M10.9,43.5c-0.1-0.5-0.3-0.9-0.4-1.3c-0.1-2.2-0.1-4.5-0.1-6.7c0-1.1,0.5-1.7,1.6-1.7c4.9,0,9.7,0,14.6,0
	c1.1,0,1.7,0.6,1.7,1.7c0,2.3-0.1,4.5-0.1,6.8c0,1-0.6,1.6-1.6,1.6c-4.8,0-9.7,0-14.5,0C11.7,43.8,11.4,43.6,10.9,43.5z"/>
<path fill="#ED1C24" d="M6.7,5.4c0.9-0.5,1.7-1,2.6-1.4c0.2-0.1,0.5,0,0.8,0.1c0,0.3,0,0.6-0.1,0.8C9.3,6,8.1,6.8,6.8,7.3
	C6.6,7.4,6.2,7.2,5.9,7.2c0-0.3,0-0.6,0.2-0.8C6.3,6,6.5,5.8,6.8,5.5C6.7,5.4,6.7,5.4,6.7,5.4z"/>
<path fill="#ED1C24" d="M29.4,5.8c-0.3-0.4-0.6-0.8-0.9-1.2c-0.3-0.5,0-0.9,0.6-0.8c1.6,0.4,2.8,1.4,3.6,2.8c0.1,0.1,0.1,0.5,0,0.6
	c-0.2,0.1-0.5,0.2-0.7,0.1c-0.9-0.4-1.8-0.9-2.7-1.4C29.3,5.9,29.4,5.8,29.4,5.8z"/>
<path d="M6.4,69.5c-0.5-0.6-0.8-1.1-1.1-1.5c-0.1-0.1-0.1-0.4,0-0.5c0.1-0.1,0.4-0.1,0.5-0.1c1.6,0.7,2.9,1.7,3.8,3.2
	c0.1,0.1,0.1,0.5,0,0.5c-0.2,0.1-0.5,0.1-0.6,0C8,70.6,7.1,70,6.4,69.5z"/>
<path d="M28.9,71.2c0.1-0.4,0.2-0.7,0.3-0.9c0.9-1.2,2-2.2,3.4-2.8c0.2-0.1,0.5,0,0.8,0c-0.1,0.3,0,0.6-0.2,0.7
	c-0.9,1.2-2,2.2-3.4,2.9C29.6,71.2,29.3,71.2,28.9,71.2z"/>
<path fill="#262626" d="M6.1,55.5c0.4-3,0.9-5.9,1.3-8.9c0-0.1,0.1-0.2,0.1-0.4c7.9,2.2,15.8,2.2,23.7,0c0.2,1.6,0.5,3.1,0.7,4.6
	c0.2,1.7,0.4,3.4,0.8,5L6.1,55.5z"/>
<path fill="#262626" d="M8.6,11.9c0,2-0.1,4-0.1,6c0,1.2,0,2.5,0,3.7c7.2-1.6,14.4-1.6,21.6,0c0-3.3-0.1-6.5-0.2-9.6L8.6,11.9z"/>
<path d="M5.9,15.9c0,0,1.3,10.9,1.1,17.9S5.6,52.3,5.1,54c0,0-1.2-11.1-1-20.6C4.1,33.5,4.3,27.4,5.9,15.9z"/>
<path d="M33,16.3c0,0-1.3,10.9-1.1,17.9c0.3,7,1.3,18.5,1.8,20.2c0,0,1.2-11.1,1-20.6C34.7,33.8,34.6,27.8,33,16.3z"/>
</svg>
