<?xml version="1.0" encoding="utf-8"?>
<!-- Generator: Adobe Illustrator 18.1.1, SVG Export Plug-In . SVG Version: 6.00 Build 0)  -->
<svg version="1.1" id="Layer_1" xmlns="http://www.w3.org/2000/svg" xmlns:xlink="http://www.w3.org/1999/xlink" x="0px" y="0px"
	 viewBox="0 0 38.5 75" enable-background="new 0 0 38.5 75" xml:space="preserve">
<path fill="#FFF200" stroke="#000000" stroke-miterlimit="10" d="M2.9,53.2c-0.7-0.4-1.5-0.8-2.2-1.3c-0.3-0.2-0.5-0.6-0.6-1
	c-0.3-1.2,0.2-1.8,1.4-1.5c0.9,0.2,1.7,0.5,2.6,0.8C4.1,49.6,4,49,4,48.4c-0.2-4.5-0.4-9-0.6-13.4c0-0.4-0.1-0.8-0.3-1.1
	c-0.4-1-0.4-2,0-3.1c0.2-0.7,0.4-1.4,0.5-2.1c0.1-1.6,0.2-3.2,0.3-4.7c0-0.2,0-0.4,0-0.6C3.5,22,3.1,20.7,3,19.3
	c0-3.2,0-6.4,0.2-9.6c0.2-3.5,2.3-5.8,5.2-7.5c2.8-1.6,5.8-2.1,9-2.2C20.8-0.1,24.1,0,27.3,1c3,1,5.7,2.6,7.2,5.6
	c0.5,1,0.9,2.2,0.9,3.3c0.2,3.5,0.2,7,0.2,10.5c0,1-0.4,2-0.6,3c0,0.2-0.1,0.4-0.1,0.7c0.1,1.8,0.2,3.6,0.3,5.4
	c0,0.4,0.1,0.7,0.3,1.1c0.5,1.2,0.6,2.3,0,3.5c-0.1,0.2-0.2,0.4-0.2,0.6c0.1,5.1-0.2,10.3-0.8,15.4c0,0.1,0,0.2,0,0.3
	c0.9-0.3,1.7-0.6,2.5-0.8c0.4-0.1,1.2,0,1.3,0.2c0.2,0.5,0.3,1.3,0,1.6c-0.5,0.6-1.2,1.2-1.9,1.5c-0.7,0.3-0.8,0.6-0.7,1.2
	c0.1,3,0.3,6,0.2,8.9c-0.2,5.6-3.8,9.9-9.5,11.3c-1.5,0.4-3,0.6-4.5,0.6c-3.1,0-6.2,0.3-9.3-0.5c-2.3-0.6-4.5-1.5-6.2-3.2
	C4,68.9,2.8,66,2.7,62.7C2.7,59.6,2.8,56.4,2.9,53.2z"/>
</svg>
